<?xml version="1.0" encoding="iso-8859-1"?>
<!-- Generator: Adobe Illustrator 17.1.0, SVG Export Plug-In . SVG Version: 6.00 Build 0)  -->
<!DOCTYPE svg PUBLIC "-//W3C//DTD SVG 1.1//EN" "http://www.w3.org/Graphics/SVG/1.1/DTD/svg11.dtd">
<svg version="1.1" id="Capa_1" xmlns="http://www.w3.org/2000/svg" xmlns:xlink="http://www.w3.org/1999/xlink" x="0px" y="0px"
	 viewBox="0 0 376 376" style="enable-background:new 0 0 376 376;" xml:space="preserve">
<path d="M368.5,157.712h-39.692c-2.325-24.511-6.78-39.133-7.15-40.315c-0.404-1.292-1.13-2.392-2.057-3.25
	c-1.36-1.903-3.583-3.148-6.101-3.148c-75.435,0-104.967,28.065-113.006,37.914h-24.988c-8.039-9.849-37.571-37.914-113.006-37.914
	c-2.516,0-4.735,1.242-6.096,3.142c-0.93,0.86-1.656,1.962-2.062,3.256c-0.37,1.182-4.825,15.804-7.15,40.315H7.5
	c-4.143,0-7.5,3.358-7.5,7.5v46.713c0,4.142,3.357,7.5,7.5,7.5h39.776c1.142,12.364,3.016,25.602,5.876,39.577
	c0.727,3.551,3.852,5.998,7.34,5.998c0.332,0,0.667-0.031,1.004-0.077c0.329,0.044,0.662,0.075,1.004,0.075
	c75.729,0,105.195-28.284,113.099-38.027h24.803c7.903,9.744,37.37,38.027,113.099,38.027c0.342,0,0.675-0.031,1.004-0.075
	c0.336,0.045,0.672,0.076,1.004,0.076c3.488,0,6.613-2.447,7.34-5.998c2.86-13.976,4.734-27.213,5.876-39.577H368.5
	c4.143,0,7.5-3.358,7.5-7.5v-46.713C376,161.07,372.643,157.712,368.5,157.712z M15,204.426v-31.713h31.141
	c-0.438,9.554-0.493,20.172,0.074,31.713H15z M144.5,232.836c-24.168,13.357-54.916,16.776-77.826,17.13
	c-11.747-63.032-2.506-110.079,0.876-123.918c22.815,0.428,53.088,3.927,76.95,17.114c11.356,6.276,17.245,12.587,19.5,15.38v58.916
	C161.737,220.259,155.839,226.57,144.5,232.836z M197,211.972h-18v-48.059h18V211.972z M212,217.456V158.54
	c2.263-2.799,8.161-9.111,19.5-15.378c23.862-13.187,54.136-16.686,76.949-17.114c3.383,13.837,12.625,60.884,0.877,123.918
	c-22.91-0.354-53.658-3.773-77.826-17.13C220.144,226.56,214.255,220.249,212,217.456z M361,204.426h-31.215
	c0.567-11.541,0.513-22.16,0.074-31.713H361V204.426z"/>
<g>
</g>
<g>
</g>
<g>
</g>
<g>
</g>
<g>
</g>
<g>
</g>
<g>
</g>
<g>
</g>
<g>
</g>
<g>
</g>
<g>
</g>
<g>
</g>
<g>
</g>
<g>
</g>
<g>
</g>
</svg>
