<?xml version="1.0" encoding="iso-8859-1"?>
<!-- Generator: Adobe Illustrator 16.0.0, SVG Export Plug-In . SVG Version: 6.00 Build 0)  -->
<!DOCTYPE svg PUBLIC "-//W3C//DTD SVG 1.1//EN" "http://www.w3.org/Graphics/SVG/1.1/DTD/svg11.dtd">
<svg version="1.1" id="Capa_1" xmlns="http://www.w3.org/2000/svg" xmlns:xlink="http://www.w3.org/1999/xlink" x="0px" y="0px"
	 width="20.422px" height="20.422px" viewBox="0 0 20.422 20.422" style="enable-background:new 0 0 20.422 20.422;"
	 xml:space="preserve">
<g>
	<g>
		<path d="M13.533,6.154c0.806-0.537,0.813-1.022,0.591-1.465c-0.222-0.443-0.589-0.677-1.393-0.14
			c-0.804,0.536-1.979,1.797-1.758,2.24C11.196,7.233,12.729,6.69,13.533,6.154z M12.958,5c0.313-0.209,0.486-0.241,0.561-0.241
			c0.056,0,0.121,0,0.216,0.191c0.079,0.158,0.064,0.223,0.06,0.247c-0.012,0.051-0.083,0.236-0.485,0.505
			c-0.516,0.342-1.308,0.657-1.783,0.719C11.783,6.028,12.381,5.384,12.958,5z"/>
		<path d="M5.831,6.654c0.219,0.147,0.566,0.365,0.97,0.601H5.949l-0.961,0.64h4.204c-1.038-0.404-2.382-1.19-3.134-1.692
			C4.795,5.363,4.781,4.604,5.128,3.91C5.475,3.217,6.053,2.85,7.31,3.691C7.865,4.061,8.631,4.8,9.287,5.574
			C9.082,4.558,8.955,3.389,8.955,2.596c0-1.681,0.562-2.074,1.256-2.074s1.255,0.394,1.255,2.074c0,0.793-0.127,1.963-0.331,2.978
			c0.656-0.773,1.422-1.514,1.975-1.883c1.261-0.84,1.838-0.474,2.185,0.22c0.347,0.694,0.332,1.453-0.927,2.294
			c-0.756,0.502-2.103,1.287-3.14,1.691h4.207l-0.961-0.64h-0.853c0.404-0.236,0.752-0.454,0.971-0.6
			c1.292-0.861,1.658-1.873,1.092-3.005c-0.559-1.116-1.483-1.288-2.801-0.411c-0.305,0.205-0.677,0.518-1.065,0.893
			c0.064-0.561,0.101-1.099,0.101-1.538C11.919,0.873,11.344,0,10.212,0C9.079,0,8.504,0.873,8.504,2.595
			c0,0.439,0.036,0.978,0.102,1.538c-0.39-0.376-0.761-0.69-1.069-0.893C6.227,2.364,5.299,2.532,4.738,3.65
			C4.474,4.178,4.414,4.692,4.565,5.177C4.729,5.714,5.145,6.198,5.831,6.654z"/>
		<polygon points="9.789,8.417 4.206,8.417 2.823,9.338 4.054,20.422 9.777,20.422 9.69,9.338 		"/>
		<path d="M10.211,2.079c-0.442,0-0.803,0.252-0.803,1.325c0,1.073,0.361,2.878,0.803,2.878c0.444,0,0.803-1.805,0.803-2.878
			C11.014,2.331,10.655,2.079,10.211,2.079z M10.211,5.549C10.044,5.095,9.86,4.173,9.86,3.404C9.86,2.6,10.055,2.6,10.211,2.6
			s0.352,0,0.352,0.804C10.563,4.173,10.379,5.095,10.211,5.549z"/>
		<polygon points="10.634,8.417 10.732,9.338 10.646,20.422 16.367,20.422 17.599,9.338 16.216,8.417 		"/>
		<path d="M7.69,4.549c-0.804-0.537-1.174-0.303-1.395,0.14C6.073,5.132,6.082,5.618,6.887,6.154c0.804,0.537,2.339,1.08,2.56,0.637
			C9.669,6.347,8.496,5.086,7.69,4.549z M7.113,5.703C6.708,5.434,6.638,5.248,6.627,5.198C6.622,5.174,6.606,5.109,6.688,4.95
			c0.094-0.19,0.158-0.19,0.214-0.19c0.075,0,0.249,0.032,0.563,0.24C8.04,5.385,8.638,6.028,8.896,6.422
			C8.419,6.36,7.627,6.044,7.113,5.703z"/>
	</g>
</g>
<g>
</g>
<g>
</g>
<g>
</g>
<g>
</g>
<g>
</g>
<g>
</g>
<g>
</g>
<g>
</g>
<g>
</g>
<g>
</g>
<g>
</g>
<g>
</g>
<g>
</g>
<g>
</g>
<g>
</g>
</svg>
