<?xml version="1.0" encoding="UTF-8" standalone="no"?>
<!-- Created with Inkscape (http://www.inkscape.org/) -->

<svg
   width="324"
   height="76"
   viewBox="0 0 85.725264 20.108328"
   version="1.1"
   id="svg5"
   inkscape:version="1.1.2 (b8e25be833, 2022-02-05)"
   sodipodi:docname="logo.svg"
   xmlns:inkscape="http://www.inkscape.org/namespaces/inkscape"
   xmlns:sodipodi="http://sodipodi.sourceforge.net/DTD/sodipodi-0.dtd"
   xmlns="http://www.w3.org/2000/svg"
   xmlns:svg="http://www.w3.org/2000/svg">
  <sodipodi:namedview
     id="namedview7"
     pagecolor="#ffffff"
     bordercolor="#666666"
     borderopacity="1.0"
     inkscape:pageshadow="2"
     inkscape:pageopacity="0.0"
     inkscape:pagecheckerboard="0"
     inkscape:document-units="mm"
     showgrid="false"
     inkscape:zoom="0.73952369"
     inkscape:cx="114.26274"
     inkscape:cy="237.99102"
     inkscape:window-width="1366"
     inkscape:window-height="705"
     inkscape:window-x="-8"
     inkscape:window-y="-8"
     inkscape:window-maximized="1"
     inkscape:current-layer="layer1"
     units="px" />
  <defs
     id="defs2">
    <rect
       x="21.62851"
       y="188.16805"
       width="752.67218"
       height="313.6134"
       id="rect2607" />
  </defs>
  <g
     inkscape:label="Vrstva 1"
     inkscape:groupmode="layer"
     id="layer1">
    <path
       id="path9177"
       style="font-size:90px;line-height:1.25;font-family:Fuggles;-inkscape-font-specification:Fuggles;white-space:pre;stroke-width:0.264583"
       d="m 62.005596,1.1720297 c -0.381,0 -0.762082,0.086857 -1.143082,0.2614824 -0.381,0.174625 -0.698397,0.3651647 -0.952397,0.5715397 -0.6985,0.5873749 -1.325911,1.3574368 -1.881539,2.3099367 -0.53975,0.936625 -0.999794,1.9767074 -1.380794,3.1197074 -0.365123,1.127125 -0.650936,2.2856481 -0.857311,3.4762731 -0.1905,1.17475 -0.285771,2.29431 -0.285771,3.357935 0,1.158875 0.118959,2.182646 0.357084,3.071646 0.04762,0.15875 0.135001,0.238228 0.262001,0.238228 0.09525,0 0.142626,-0.07948 0.142626,-0.238228 0,-0.07937 -0.0079,-0.14306 -0.02376,-0.190685 -0.0635,-0.4445 -0.118772,-0.920853 -0.166397,-1.428853 -0.03175,-0.492125 -0.04806,-0.975858 -0.04806,-1.452108 v -0.619085 c 0,-0.206375 0.0084,-0.413224 0.02429,-0.619599 l 0.07132,-0.07132 c 0.317497,-0.508 0.66648,-1.008042 1.04748,-1.500167 0.381,-0.492124 0.78577,-0.968478 1.214395,-1.428853 0.09525,0.1905 0.214728,0.405247 0.357603,0.643372 0.142875,0.22225 0.253936,0.388588 0.333311,0.49971 v -0.02376 c 0.04763,0.09525 0.07131,0.135247 0.07131,0.119372 v 0.02379 c 0.238125,0.396872 0.539728,0.849021 0.904853,1.357021 0.365125,0.508 0.769898,1.008041 1.214398,1.500166 0.4445,0.492125 0.90506,0.929 1.38131,1.31 0.47625,0.381 0.94419,0.642604 1.404565,0.785482 0.142875,0.04763 0.278146,0.07131 0.405146,0.07131 0.174625,0 0.34096,-0.02368 0.49971,-0.07131 0.365125,-0.127 0.627248,-0.364919 0.785998,-0.714169 0.158753,-0.333375 0.254024,-0.698666 0.285771,-1.095541 0.04763,-0.41275 0.07131,-0.769626 0.07131,-1.071253 0,-0.142873 -0.07106,-0.214456 -0.213939,-0.214456 h -0.04806 c -0.09525,0.01587 -0.142626,0.07115 -0.142626,0.166397 v 0.04806 c 0,0.04762 -0.0079,0.095 -0.02376,0.142629 v 0.166915 c 0,0.254 -0.02368,0.531397 -0.07131,0.833022 -0.03175,0.28575 -0.103333,0.55577 -0.214458,0.80977 -0.111125,0.238125 -0.293769,0.404977 -0.547769,0.500227 -0.09525,0.03175 -0.174728,0.04754 -0.238228,0.04754 -0.04763,0 -0.095,-0.0079 -0.142627,-0.02376 -0.03175,0 -0.07175,-0.0079 -0.119374,-0.02379 -0.396875,-0.126997 -0.833232,-0.404913 -1.309482,-0.833541 -0.460372,-0.428622 -0.920935,-0.928666 -1.38131,-1.500166 -0.4445,-0.587375 -0.857168,-1.158999 -1.238168,-1.714624 -0.381,-0.5715 -0.682603,-1.039955 -0.904853,-1.40508 -0.01588,-0.0635 -0.08746,-0.190357 -0.214458,-0.3808575 C 59.179419,9.7759831 59.060462,9.593336 58.933462,9.434586 c 1.508125,-1.524 3.198791,-2.8335843 5.072041,-3.9289593 1.87325,-1.095375 3.778147,-1.8412301 5.714897,-2.2381051 0.127,-0.015875 0.190685,-0.095353 0.190685,-0.2382282 0,-0.111125 -0.04738,-0.2142913 -0.142626,-0.309544 -0.09525,-0.1111223 -0.206314,-0.1669124 -0.333314,-0.1669124 -1.30175,0.28575 -2.596058,0.7542054 -3.881933,1.4050804 -1.27,0.650875 -2.492211,1.4209368 -3.666961,2.3099368 -1.174749,0.889 -2.262208,1.8490856 -3.262333,2.8809606 -0.03175,-0.031745 -0.07123,-0.04754 -0.118854,-0.04754 -0.09525,0.015875 -0.166833,0.071662 -0.214458,0.1669124 -0.04763,0.095253 -0.07131,0.1984189 -0.07131,0.3095439 -0.777875,0.8572499 -1.476354,1.7225829 -2.095479,2.5957049 0.126998,-1.174749 0.357021,-2.3416864 0.690396,-3.5005613 0.34925,-1.158875 0.80981,-2.2542288 1.38131,-3.2861038 0.587375,-1.031875 1.301647,-1.9366865 2.143022,-2.7145615 0.1905,-0.174625 0.460521,-0.3493743 0.809771,-0.5239993 0.365125,-0.1905 0.714105,-0.2857712 1.04748,-0.2857712 0.22225,0 0.42069,0.055274 0.595312,0.1663991 0.174628,0.09525 0.293585,0.2778945 0.357085,0.5477695 0.04763,0.15875 0.127103,0.2382282 0.238228,0.2382282 0.07937,0 0.119375,-0.063685 0.119375,-0.1906852 0,-0.09525 -0.0079,-0.1663144 -0.02379,-0.2139421 C 63.33913,1.9498411 63.132279,1.6324443 62.862404,1.4578193 62.608407,1.2673193 62.323109,1.1720508 62.005609,1.1720508 Z m -51.93533,1.142566 c -0.746125,0 -1.50829,0.087373 -2.286165,0.2619983 -0.762,0.174625 -1.420481,0.3651674 -1.976107,0.5715424 -0.47625,0.1905 -1.016289,0.4447249 -1.619539,0.7622249 -0.60325,0.3175 -1.18277,0.6906868 -1.738395,1.1193118 -0.53975,0.41275 -0.991898,0.8727943 -1.357023,1.3807942 -0.34924997,0.508 -0.52399897,1.0401433 -0.52399897,1.5957683 0,0.3175 0.05579,0.6191064 0.166915,0.9048564 0.1905,0.4603724 0.48420797,0.8251481 0.88108297,1.095023 0.396875,0.254 0.833231,0.436642 1.309481,0.54777 0.492125,0.09525 0.960582,0.143145 1.405082,0.143145 0.206375,0 0.404812,-0.0079 0.595312,-0.02379 0.1905,-0.01588 0.365249,-0.03219 0.523999,-0.04806 0.746125,-0.09525 1.452501,-0.237898 2.119251,-0.428398 0.682625,-0.2063749 1.341106,-0.4842906 1.976106,-0.8335406 0.1905,-0.09525 0.285771,-0.1984163 0.285771,-0.3095413 0,-0.09525 -0.05527,-0.1426263 -0.166398,-0.1426263 -0.03175,0 -0.09544,0.015796 -0.190686,0.04754 -0.381,0.1905 -0.801564,0.3652494 -1.261938,0.5239994 -0.460376,0.15875 -0.905144,0.2856045 -1.333769,0.3808545 -0.428625,0.095253 -0.785503,0.1505263 -1.071253,0.1663993 -0.127,0.01588 -0.262268,0.02376 -0.405143,0.02376 h -0.47594 c -0.381,-3e-6 -0.793667,-0.02368 -1.238167,-0.071316 C 3.260119,9.9188148 2.846935,9.8156485 2.45006,9.6727735 2.06906,9.5140235 1.759559,9.2997957 1.521434,9.029918 1.283309,8.744168 1.16435,8.3709812 1.16435,7.9106089 c 0,-0.508 0.174749,-0.992251 0.523999,-1.452626 0.365125,-0.460375 0.809377,-0.873043 1.333252,-1.238168 0.53975,-0.381 1.07979,-0.706292 1.61954,-0.976167 C 5.180891,3.9737729 5.625142,3.7753354 5.974392,3.6483354 6.530017,3.4419604 7.165327,3.243523 7.879703,3.053023 c 0.73025,-0.1905 1.444521,-0.2857712 2.143021,-0.2857712 0.5715,0 1.095231,0.087376 1.571481,0.262001 0.47625,0.174625 0.857332,0.4762288 1.143082,0.9048538 0.28575,0.41275 0.428398,0.9922695 0.428398,1.7383945 0,0.619125 -0.111063,1.2697116 -0.333313,1.9523366 -0.22225,0.682625 -0.515958,1.3416227 -0.881083,1.9766227 -0.34925,0.6191246 -0.721921,1.1744406 -1.118795,1.6665656 -0.53975,0.01587 -1.135062,0.04797 -1.785937,0.0956 -0.635001,0.04763 -1.214521,0.134999 -1.738396,0.261999 -0.555625,0.127 -1.16673,0.301233 -1.833479,0.523483 -0.650875,0.206375 -1.278289,0.4606 -1.88154,0.762228 -0.60325,0.301622 -1.12698,0.634812 -1.57148,0.999937 -0.238125,0.174625 -0.483939,0.420957 -0.737939,0.738457 -0.238125,0.301625 -0.35760097,0.611124 -0.35760097,0.928624 0,0.28575 0.08737,0.499981 0.26199997,0.642856 0.174625,0.142875 0.380958,0.238149 0.619083,0.285771 0.254,0.04763 0.484539,0.07131 0.690914,0.07131 0.254,0 0.507711,-0.02368 0.761711,-0.07131 0.254,-0.03175 0.516123,-0.07913 0.785998,-0.142626 0.904875,-0.22225 1.801792,-0.563854 2.690792,-1.024229 0.889,-0.460375 1.730127,-1.007793 2.523877,-1.642793 0.79375,-0.635 1.492229,-1.301895 2.095479,-2.000395 0.127,0 0.293853,0.0158 0.500228,0.04754 0.206375,0.03175 0.396917,0.07965 0.571541,0.143145 0.190499,0.04763 0.309458,0.126584 0.357085,0.237709 0.03175,0.04763 0.04754,0.135001 0.04754,0.262001 0,0.111125 -0.0079,0.198499 -0.02377,0.261999 0.174625,0.04763 0.293584,0.01603 0.357084,-0.09508 0.07937,-0.127 0.119372,-0.253857 0.119372,-0.380857 v -0.07183 c -0.01588,-0.206375 -0.126938,-0.364815 -0.333313,-0.47594 -0.1905,-0.111123 -0.40473,-0.190601 -0.642855,-0.238228 -0.238125,-0.04763 -0.444976,-0.07921 -0.6196,-0.09508 0.635,-0.777877 1.190832,-1.6832045 1.667082,-2.7150795 0.492124,-1.031875 0.738456,-2.0635436 0.738456,-3.0954186 0,-0.809625 -0.190542,-1.4444186 -0.571542,-1.9047936 -0.365122,-0.460377 -0.857268,-0.7861876 -1.476393,-0.9766875 -0.60325,-0.1905 -1.262249,-0.2857686 -1.976624,-0.2857686 z m 18.383375,1.9528499 c -0.03175,0 -0.07175,0.015796 -0.119375,0.047543 -0.03174,0.015875 -0.06333,0.031671 -0.09508,0.047543 -0.365125,0.238125 -0.690417,0.5318337 -0.976167,0.8810837 -0.28575,0.333375 -0.603147,0.6349788 -0.952397,0.9048538 -0.07937,0.0635 -0.166751,0.1271852 -0.262001,0.1906852 -0.07937,0.047625 -0.174643,0.095001 -0.285768,0.1426289 -0.0635,0.015875 -0.0956,0.055872 -0.0956,0.1193721 0,0.031745 0.02421,0.04754 0.07183,0.04754 0.0635,0 0.174564,-0.039478 0.333314,-0.1188534 0.158744,-0.079375 0.269806,-0.1430601 0.333306,-0.1906877 -0.28575,0.523875 -0.651039,1.1749775 -1.095539,1.9528525 -0.428625,0.762 -0.857086,1.571543 -1.285711,2.4287933 -0.428625,0.841374 -0.793914,1.658813 -1.095539,2.452563 -0.28575,0.777875 -0.428398,1.452665 -0.428398,2.024165 0,0.04763 0.0079,0.158689 0.02376,0.333314 0.01588,0.1905 0.05536,0.285769 0.118856,0.285769 0.09525,0 0.143142,-0.06369 0.143145,-0.190685 0.01588,-0.127 0.03167,-0.222271 0.04754,-0.285771 0.269875,-0.381 0.603065,-0.777875 0.99994,-1.190625 0.41275,-0.41275 0.80173,-0.753835 1.166855,-1.02371 0.04763,0.22225 0.134998,0.539646 0.261998,0.952396 0.142875,0.41275 0.333415,0.785937 0.571542,1.119312 0.238123,0.3175 0.516041,0.475941 0.833541,0.475941 0.15875,0 0.325086,-0.07106 0.499711,-0.21394 0.174625,-0.142875 0.261998,-0.301831 0.261998,-0.476459 0,-0.04763 -0.0158,-0.07131 -0.04754,-0.07131 -0.03175,0 -0.04754,0.02368 -0.04754,0.07131 -0.127,0.269878 -0.349126,0.404628 -0.666626,0.404628 -0.206375,0 -0.381124,-0.111062 -0.523999,-0.333312 -0.127,-0.22225 -0.230169,-0.491755 -0.309542,-0.809255 -0.07937,-0.3175 -0.135162,-0.627517 -0.166915,-0.929142 -0.03176,-0.301625 -0.05544,-0.523751 -0.07131,-0.666626 0.381,-0.269875 0.833665,-0.484105 1.35754,-0.642855 0.53975,-0.15875 0.984002,-0.365083 1.333252,-0.619083 0.07937,-0.0635 0.135159,-0.142978 0.166915,-0.238228 0.03174,-0.111125 0.04754,-0.214291 0.04754,-0.309541 0,-0.04763 -0.0079,-0.102899 -0.02376,-0.166399 -0.01588,-0.0635 -0.06377,-0.0956 -0.143145,-0.0956 -0.222247,0 -0.491751,0.05579 -0.809251,0.166915 -0.301625,0.09525 -0.563748,0.182626 -0.785998,0.262001 -0.07937,0.03175 -0.158853,0.05544 -0.238228,0.07131 -0.0635,0 -0.135083,0.0158 -0.214458,0.04754 -0.07937,0 -0.118857,0.03158 -0.118857,0.09508 0,0.04763 0.03948,0.07183 0.118857,0.07183 0.07937,0 0.222541,-0.02421 0.428913,-0.07183 l 0.619085,-0.190229 c 0.22225,-0.07938 0.373309,-0.12727 0.452687,-0.143143 -0.762,0.444561 -1.500479,0.944602 -2.214854,1.500227 0,-0.127 -0.06368,-0.245959 -0.190685,-0.357084 -0.127,-0.127003 -0.238064,-0.206484 -0.333314,-0.238229 -0.111125,-0.04763 -0.206394,-0.07131 -0.285772,-0.07131 -0.07937,0 -0.118853,0.03158 -0.118853,0.09508 0,0.04763 0.0079,0.07973 0.02376,0.0956 0.04762,0.111125 0.09552,0.261669 0.143144,0.452169 0.04762,0.174628 0.0871,0.333584 0.118854,0.476456 -0.365125,0.317501 -0.714621,0.619107 -1.047996,0.904857 -0.333375,0.269875 -0.65867,0.603064 -0.97617,0.999936 0.142878,-0.698499 0.405001,-1.484351 0.786001,-2.357476 0.396875,-0.889 0.856919,-1.785867 1.380794,-2.6907417 0.523875,-0.92075 1.071808,-1.7697741 1.643308,-2.5476491 0.5715,-0.79375 1.111026,-1.4527503 1.619023,-1.9766227 0.1905,-0.1905 0.285771,-0.4126256 0.285771,-0.6666283 0,-0.047622 -0.0079,-0.095515 -0.02376,-0.1431422 -0.01588,-0.0635 -0.06325,-0.095086 -0.142626,-0.095086 z m 48.196539,0 c -0.03175,0 -0.07174,0.015796 -0.119372,0.047543 -0.03175,0.015875 -0.06334,0.031671 -0.09508,0.047543 -0.365128,0.238125 -0.69042,0.5318337 -0.97617,0.8810837 -0.28575,0.333375 -0.603147,0.6349788 -0.952397,0.9048538 -0.07937,0.0635 -0.166748,0.1271852 -0.261998,0.1906852 -0.07938,0.047625 -0.174646,0.095001 -0.285771,0.1426289 -0.0635,0.015875 -0.0956,0.055872 -0.0956,0.1193721 0,0.031745 0.02421,0.04754 0.07183,0.04754 0.0635,0 0.174561,-0.039478 0.333311,-0.1188534 0.15875,-0.079375 0.269814,-0.1430603 0.333314,-0.1906879 -0.285753,0.5238752 -0.651044,1.1749777 -1.095544,1.9528527 -0.428623,0.762 -0.857084,1.571543 -1.285709,2.4287933 -0.428625,0.841374 -0.793916,1.658813 -1.095541,2.452563 -0.28575,0.777875 -0.428398,1.452665 -0.428398,2.024165 0,0.04763 0.0079,0.158689 0.02376,0.333314 0.01588,0.1905 0.05536,0.285769 0.118856,0.285769 0.09525,0 0.143142,-0.06369 0.143142,-0.190685 0.01587,-0.127 0.03167,-0.222271 0.04754,-0.285771 0.269875,-0.381 0.603062,-0.777875 0.99994,-1.190625 0.41275,-0.41275 0.801727,-0.753835 1.166852,-1.02371 0.04762,0.22225 0.135001,0.539646 0.262001,0.952396 0.142875,0.41275 0.333415,0.785937 0.57154,1.119312 0.238125,0.3175 0.516041,0.475941 0.833541,0.475941 0.15875,0 0.325088,-0.07106 0.49971,-0.21394 0.174628,-0.142875 0.262001,-0.301831 0.262001,-0.476459 0,-0.04763 -0.0158,-0.07131 -0.04754,-0.07131 -0.03175,0 -0.04754,0.02368 -0.04754,0.07131 -0.127,0.269878 -0.349125,0.404628 -0.666625,0.404628 -0.206375,0 -0.381125,-0.111062 -0.524,-0.333312 -0.127,-0.22225 -0.230166,-0.491755 -0.309541,-0.809255 -0.07938,-0.3175 -0.135168,-0.627517 -0.166915,-0.929142 -0.03175,-0.301625 -0.05544,-0.523751 -0.07131,-0.666626 0.381,-0.269875 0.833665,-0.484105 1.35754,-0.642855 0.53975,-0.15875 0.984001,-0.365083 1.333251,-0.619083 0.07937,-0.0635 0.135162,-0.142978 0.166915,-0.238228 0.03175,-0.111125 0.04754,-0.214291 0.04754,-0.309541 0,-0.04763 -0.0079,-0.102899 -0.02376,-0.166399 -0.01587,-0.0635 -0.06377,-0.0956 -0.143144,-0.0956 -0.22225,0 -0.491752,0.05579 -0.809252,0.166915 -0.301625,0.09525 -0.563751,0.182626 -0.786001,0.262001 -0.07937,0.03175 -0.15885,0.05544 -0.238228,0.07131 -0.0635,0 -0.134564,0.0158 -0.213939,0.04754 -0.07937,0 -0.119372,0.03158 -0.119372,0.09508 0,0.04763 0.04,0.07183 0.119372,0.07183 0.07937,0 0.222022,-0.02421 0.428397,-0.07183 l 0.619083,-0.190229 c 0.22225,-0.07938 0.373311,-0.12727 0.452686,-0.143143 -0.762,0.444561 -1.500476,0.944602 -2.214851,1.500227 0,-0.127 -0.06369,-0.245959 -0.190688,-0.357084 -0.127,-0.127003 -0.238061,-0.206484 -0.333311,-0.238229 -0.111125,-0.04763 -0.206396,-0.07131 -0.285771,-0.07131 -0.07937,0 -0.118857,0.03158 -0.118857,0.09508 0,0.04763 0.0079,0.07973 0.02379,0.0956 0.04762,0.111125 0.09552,0.261669 0.143143,0.452169 0.04763,0.174628 0.08711,0.333584 0.118856,0.476456 -0.365125,0.317501 -0.714624,0.619107 -1.047999,0.904857 -0.333375,0.269875 -0.658667,0.603064 -0.976167,0.999936 0.142875,-0.698499 0.404998,-1.484351 0.785998,-2.357476 0.396875,-0.889 0.856919,-1.785867 1.380794,-2.6907417 0.523875,-0.920799 1.071811,-1.7698231 1.643311,-2.5476981 0.5715,-0.79375 1.111023,-1.4527503 1.619023,-1.9766227 0.1905,-0.1905 0.285771,-0.4126256 0.285771,-0.6666283 0,-0.047622 -0.0079,-0.095515 -0.02376,-0.1431422 -0.01588,-0.0635 -0.06325,-0.095086 -0.142629,-0.095086 z M 45.932159,4.5532167 c -0.01588,0 -0.03218,0.00788 -0.04806,0.02376 h -0.04754 c -0.127,0.03175 -0.238065,0.1112282 -0.333315,0.2382282 -0.09525,0.127 -0.16683,0.2459567 -0.214458,0.3570843 -0.07938,0.1746224 -0.134651,0.3809577 -0.166396,0.6190827 -0.03176,0.22225 -0.04754,0.4522734 -0.04754,0.6903984 v 0.3575999 c 0.01588,0.127 0.02376,0.2459593 0.02376,0.3570843 -0.460375,0.508 -0.920936,0.9843531 -1.381311,1.4288531 -0.4445,0.4445 -0.872958,0.9124395 -1.285708,1.4045644 -0.396878,0.47625 -0.770062,1.032081 -1.119312,1.667081 -0.381,-0.269875 -0.658918,-0.619371 -0.83354,-1.047996 -0.04763,-0.127002 -0.07921,-0.245962 -0.09509,-0.357084 -0.01588,-0.111128 -0.02376,-0.222189 -0.02376,-0.3333141 0,-0.492125 0.142647,-0.9284811 0.428397,-1.3094811 0.301625,-0.396875 0.659019,-0.706374 1.071769,-0.928624 0.428625,-0.2381276 0.8255,-0.3576029 1.190625,-0.3576029 h 0.333312 c 0.03175,0 0.04754,-0.02368 0.04754,-0.071313 -0.01588,-0.031753 -0.08746,-0.047543 -0.214458,-0.047543 -0.111123,0 -0.25377,0.015796 -0.428398,0.047543 -0.15875,0.015875 -0.269811,0.023786 -0.333311,0.023786 -0.381,0.079375 -0.762082,0.2541244 -1.143082,0.5239967 -0.365125,0.254 -0.674627,0.5792946 -0.928627,0.9761696 -0.254,0.381 -0.380854,0.8015632 -0.380854,1.2619378 0,0.22225 0.03948,0.46858 0.118856,0.738455 0.09525,0.269875 0.229999,0.507793 0.404624,0.714168 0.1905,0.1905 0.40525,0.357355 0.643372,0.50023 -0.111122,0.206375 -0.214291,0.460602 -0.309541,0.762227 -0.07937,0.28575 -0.119373,0.579456 -0.119373,0.881084 0,0.22225 0.03159,0.428582 0.09508,0.619082 0.142877,0.428625 0.389207,0.714436 0.738457,0.857311 0.365125,0.142875 0.746207,0.213942 1.143082,0.213942 0.238125,0 0.460251,-0.01579 0.666626,-0.04754 0.22225,-0.03175 0.412792,-0.06333 0.571542,-0.09509 0.333375,-0.07937 0.650772,-0.174643 0.952397,-0.285768 0.301625,-0.127 0.595334,-0.278061 0.881084,-0.452686 0,0.333375 -0.0158,0.738145 -0.04754,1.214395 -0.01588,0.492125 -0.07166,0.968481 -0.166915,1.428853 -0.09525,0.47625 -0.261586,0.86523 -0.499711,1.166855 -0.238125,0.3175 -0.571831,0.476456 -1.000456,0.476456 -0.34925,0 -0.635063,-0.190542 -0.857313,-0.571542 -0.03175,-0.04763 -0.06334,-0.06341 -0.09508,-0.04754 -0.03175,0.01587 -0.03965,0.03956 -0.02376,0.07131 0.111122,0.254 0.270081,0.436644 0.476456,0.547769 0.206375,0.111125 0.420603,0.166399 0.642856,0.166399 0.07937,0 0.142541,-0.0079 0.190166,-0.02379 0.0635,0 0.127188,-0.0079 0.190688,-0.02376 0.492125,-0.127 0.865312,-0.397021 1.119312,-0.809771 0.254,-0.396875 0.428749,-0.872709 0.523999,-1.428334 0.09525,-0.53975 0.142627,-1.071896 0.142627,-1.595769 v -0.499713 c 0,-0.15875 -0.0079,-0.317706 -0.02379,-0.476456 0.555627,-0.365125 1.03198,-0.793584 1.428855,-1.285709 0.412748,-0.508 0.730145,-1.087522 0.952395,-1.738396 0.07938,-0.206375 0.150958,-0.44481 0.214458,-0.714685 0.07937,-0.269875 0.118856,-0.547272 0.118856,-0.833022 0,-0.238125 -0.03158,-0.4449763 -0.09508,-0.6196013 -0.09525,-0.254 -0.23052,-0.4282334 -0.405145,-0.5234834 -0.174625,-0.111125 -0.364649,-0.166915 -0.571024,-0.166915 -0.460375,0 -0.897247,0.1510612 -1.309997,0.4526862 -0.396875,0.28575 -0.730065,0.611042 -0.99994,0.976167 -0.07937,-0.4286161 -0.150952,-0.8570745 -0.214452,-1.2856994 -0.0635,-0.428625 -0.09509,-0.8576019 -0.09509,-1.2862269 0.1905,-0.1905 0.396832,-0.4442116 0.619085,-0.7617116 C 46.24159,5.9582362 46.36055,5.6166327 46.36055,5.2673827 V 5.1009836 c 0,-0.047622 -0.0158,-0.1034124 -0.04754,-0.1669124 -0.07938,-0.254 -0.206229,-0.3808571 -0.380857,-0.3808571 z m 0.02376,0.4046273 c 0.09525,0 0.150524,0.047895 0.166397,0.1431422 0.04763,0.127 0.01603,0.3175424 -0.09508,0.5715424 -0.09525,0.238125 -0.206315,0.4681484 -0.333315,0.6903984 -0.127,0.2222474 -0.222268,0.3812064 -0.285768,0.4764564 0,-0.22225 0.01579,-0.4843727 0.04754,-0.7860004 0.03175,-0.3016223 0.09544,-0.5395409 0.190688,-0.7141659 0.03175,-0.0635 0.07123,-0.135083 0.118854,-0.214458 0.04763,-0.079372 0.111312,-0.1351624 0.190687,-0.1669151 z m -0.857313,2.428793 c 0.03175,0.4445 0.07123,0.881372 0.118856,1.309997 0.04762,0.428625 0.09552,0.8649811 0.143145,1.309481 -0.142875,0.15875 -0.365519,0.40508 -0.667144,0.738455 -0.301625,0.3175 -0.658503,0.611208 -1.071251,0.881083 -0.396877,0.269875 -0.81744,0.404628 -1.26194,0.404628 -0.206373,0 -0.396915,-0.03159 -0.57154,-0.09509 0.0635,-0.174625 0.126669,-0.333582 0.190169,-0.476457 0.07938,-0.15875 0.158853,-0.309292 0.238228,-0.452167 0.206375,-0.365125 0.420606,-0.714624 0.642856,-1.0479989 0.22225,-0.34925 0.46858,-0.6824397 0.738455,-0.9999397 0.238125,-0.269875 0.483938,-0.5319977 0.737938,-0.7859977 0.269875,-0.254 0.524103,-0.5161227 0.762228,-0.7859977 z M 16.380462,8.0775487 c -0.142875,2.6e-6 -0.32552,0.055274 -0.54777,0.1663991 -0.206375,0.09525 -0.309542,0.2305182 -0.309542,0.4051432 0,0.095253 0.0321,0.1584219 0.0956,0.1901693 0.07937,0.031747 0.15044,0.047543 0.21394,0.047543 v 5.291e-4 c 0.142875,0 0.32552,-0.05579 0.54777,-0.166915 0.22225,-0.111125 0.333313,-0.2537725 0.333313,-0.4283974 0,-0.079378 -0.03948,-0.1351677 -0.118856,-0.1669151 -0.0635,-0.031753 -0.135082,-0.04754 -0.214457,-0.047543 z m 52.744585,0 c -0.142875,2.6e-6 -0.325004,0.055274 -0.547254,0.1663991 -0.206375,0.09525 -0.309541,0.2305182 -0.309541,0.4051432 0,0.095253 0.03158,0.1584219 0.09508,0.1901693 0.07937,0.031747 0.150958,0.047543 0.214458,0.047543 v 5.291e-4 c 0.142875,0 0.325004,-0.05579 0.547254,-0.166915 0.22225,-0.111125 0.33383,-0.2537725 0.33383,-0.4283974 0,-0.079378 -0.04,-0.1351677 -0.119375,-0.1669151 -0.0635,-0.031753 -0.13508,-0.04754 -0.214455,-0.047543 z m -35.956462,0.214458 c -0.09525,0 -0.198416,0.00791 -0.309541,0.023786 -0.09525,0.015875 -0.206831,0.047456 -0.333831,0.095083 -0.66675,0.22225 -1.301543,0.619125 -1.904793,1.190625 -0.587375,0.5715003 -1.079521,1.2220863 -1.476396,1.9523363 -0.396875,0.73025 -0.642689,1.460831 -0.737939,2.191081 -0.01588,0.127 -0.01588,0.301749 0,0.523999 0.03175,0.22225 0.09492,0.420685 0.190169,0.595313 0.111125,0.174622 0.270082,0.261482 0.476457,0.261482 0.254,0 0.507711,-0.103169 0.761711,-0.309541 0.269875,-0.22225 0.516205,-0.491755 0.738455,-0.809255 0.238125,-0.333375 0.44446,-0.66708 0.619085,-1.000455 0.174625,-0.333375 0.309375,-0.619186 0.404625,-0.857311 -0.01588,0.365125 -0.01588,0.722519 0,1.071769 0.03175,0.333375 0.06385,0.587602 0.0956,0.762227 0.111125,0.460375 0.253772,0.785667 0.428397,0.976167 0.174625,0.1905 0.365168,0.285771 0.571543,0.285771 0.22225,0 0.460168,-0.08737 0.714168,-0.262001 0.253997,-0.174622 0.484537,-0.388852 0.690915,-0.642852 0.269872,-0.3175 0.50779,-0.619104 0.714165,-0.904857 0.22225,-0.301625 0.412793,-0.587436 0.571543,-0.857311 0.03175,-0.04762 0.04754,-0.11131 0.04754,-0.190685 0,-0.04763 -0.0158,-0.07131 -0.04754,-0.07131 -0.03175,0 -0.07123,0.03158 -0.118856,0.09508 l -0.524,0.714685 c -0.111125,0.142875 -0.277976,0.34921 -0.500226,0.619085 -0.206375,0.254 -0.428503,0.484021 -0.666626,0.690396 -0.22225,0.206375 -0.428585,0.309541 -0.619085,0.309541 -0.1905,0 -0.349457,-0.150542 -0.476457,-0.452167 -0.127,-0.3175 -0.190169,-0.801749 -0.190169,-1.452626 0,-0.365123 0.0158,-0.722519 0.04754,-1.071769 0.03175,-0.365125 0.07913,-0.730414 0.142626,-1.095539 v -0.04754 c 0.01588,-0.01587 0.02376,-0.03167 0.02376,-0.04754 0,-0.15875 -0.07106,-0.238229 -0.213939,-0.238229 -0.174625,0 -0.309894,0.07948 -0.405144,0.238229 -0.09525,0.15875 -0.158422,0.301916 -0.190169,0.428916 l -0.04806,0.261482 c -0.1905,0.508 -0.452107,1.048039 -0.785482,1.619539 -0.333375,0.5715 -0.634978,1.047853 -0.904853,1.428853 -0.07937,0.09525 -0.182542,0.214209 -0.309542,0.357084 -0.127,0.142875 -0.262268,0.214458 -0.405143,0.214458 -0.111125,0 -0.190085,-0.07158 -0.237712,-0.214458 -0.03175,-0.15875 -0.04806,-0.309808 -0.04806,-0.452683 0,-0.206375 0.0163,-0.356921 0.04806,-0.452171 0.04762,-0.381 0.190272,-0.817872 0.428397,-1.309997 0.254,-0.492125 0.547709,-0.975857 0.881084,-1.452107 0.333375,-0.492125 0.642874,-0.889 0.928624,-1.1906253 0.238128,-0.269875 0.476044,-0.4925192 0.714169,-0.6671442 0.254,-0.174625 0.547708,-0.3172725 0.881083,-0.4283975 0.0635,-0.015875 0.127185,-0.02376 0.190685,-0.02376 0.07938,-0.015875 0.150958,-0.02376 0.214458,-0.02376 0.127,0 0.230167,0.02368 0.309542,0.071316 0.09525,0.03175 0.142626,0.1033304 0.142626,0.2144554 0,0.079375 -0.03948,0.1983343 -0.118853,0.3570843 -0.03175,0.047625 -0.06333,0.095001 -0.09509,0.1426289 -0.01588,0.047622 -0.04009,0.095515 -0.07183,0.1431423 -0.03175,0.047622 -0.03965,0.095001 -0.02379,0.1426263 0.01588,0.047628 0.04008,0.071832 0.07183,0.071832 0.03175,0 0.05544,-0.024209 0.07131,-0.071832 l 0.19017,-0.3095414 c 0.127,-0.1905 0.190685,-0.3810423 0.190685,-0.5715396 0,-0.3810027 -0.245814,-0.5710264 -0.737939,-0.5710264 z m 48.196542,0 c -0.09525,0 -0.198417,0.00791 -0.309544,0.023786 -0.09525,0.015875 -0.206828,0.047456 -0.33383,0.095083 -0.666748,0.22225 -1.301541,0.619125 -1.904791,1.190625 -0.587375,0.5715003 -1.079522,1.2220863 -1.476397,1.9523363 -0.396875,0.73025 -0.642688,1.460831 -0.737938,2.191081 -0.01588,0.127 -0.01588,0.301749 0,0.523999 0.03175,0.22225 0.09492,0.420685 0.190169,0.595313 0.111122,0.174622 0.270081,0.261482 0.476456,0.261482 0.254,0 0.507709,-0.103169 0.761709,-0.309541 0.269875,-0.22225 0.516208,-0.491755 0.738458,-0.809255 0.238125,-0.333375 0.444457,-0.66708 0.619082,-1.000455 0.174625,-0.333375 0.309378,-0.619186 0.404628,-0.857311 -0.01588,0.365125 -0.01588,0.722519 0,1.071769 0.03175,0.333375 0.06385,0.587602 0.0956,0.762227 0.111125,0.460375 0.253773,0.785667 0.428398,0.976167 0.174625,0.1905 0.365165,0.285771 0.57154,0.285771 0.22225,0 0.460168,-0.08737 0.714168,-0.262001 0.253998,-0.174622 0.484538,-0.388852 0.690918,-0.642852 0.26987,-0.3175 0.50779,-0.619104 0.71417,-0.904857 0.22225,-0.301625 0.41279,-0.587436 0.57154,-0.857311 0.0318,-0.04762 0.0475,-0.11131 0.0475,-0.190685 0,-0.04763 -0.0158,-0.07131 -0.0475,-0.07131 -0.0318,0 -0.0712,0.03158 -0.11886,0.09508 l -0.524,0.714685 c -0.11112,0.142875 -0.27798,0.34921 -0.50023,0.619085 -0.20637,0.254 -0.4285,0.484021 -0.66662,0.690396 -0.222253,0.206375 -0.428585,0.309541 -0.619085,0.309541 -0.1905,0 -0.349457,-0.150542 -0.476457,-0.452167 -0.127,-0.3175 -0.190169,-0.801749 -0.190169,-1.452626 0,-0.365123 0.0158,-0.722519 0.04754,-1.071769 0.03175,-0.365125 0.07913,-0.730414 0.142626,-1.095539 v -0.04754 c 0.01587,-0.01587 0.02376,-0.03167 0.02376,-0.04754 0,-0.15875 -0.07107,-0.238229 -0.21394,-0.238229 -0.174625,0 -0.309893,0.07948 -0.405143,0.238229 -0.09525,0.15875 -0.158424,0.301916 -0.190169,0.428916 l -0.04806,0.261482 c -0.1905,0.508 -0.452107,1.048039 -0.785482,1.619539 -0.333375,0.5715 -0.634979,1.047853 -0.904854,1.428853 -0.07937,0.09525 -0.182544,0.214209 -0.309544,0.357084 -0.127,0.142875 -0.262268,0.214458 -0.405143,0.214458 -0.111122,0 -0.190084,-0.07158 -0.237709,-0.214458 -0.03175,-0.15875 -0.04806,-0.309808 -0.04806,-0.452683 0,-0.206375 0.01633,-0.356921 0.04806,-0.452171 0.04763,-0.381 0.190272,-0.817872 0.428397,-1.309997 0.254,-0.492125 0.547706,-0.975857 0.881081,-1.452107 0.333375,-0.492125 0.642877,-0.889 0.928627,-1.1906253 0.238125,-0.269875 0.476559,-0.4925192 0.714684,-0.6671442 0.254,-0.174625 0.547193,-0.3172725 0.880568,-0.4283975 0.0635,-0.015875 0.127185,-0.02376 0.190685,-0.02376 0.07937,-0.015875 0.150958,-0.02376 0.214458,-0.02376 0.127,0 0.230166,0.02368 0.309541,0.071316 0.09525,0.03175 0.142628,0.1033304 0.142628,0.2144554 0,0.079375 -0.0395,0.1983343 -0.11885,0.3570843 -0.03176,0.047625 -0.06333,0.095001 -0.0951,0.1426289 -0.01588,0.047622 -0.04008,0.095515 -0.07183,0.1431423 -0.03175,0.047622 -0.03964,0.095001 -0.02376,0.1426263 0.01587,0.047628 0.04008,0.071832 0.07183,0.071832 0.03176,0 0.05544,-0.024209 0.07132,-0.071832 l 0.19017,-0.3095414 c 0.127,-0.1905 0.19069,-0.3810423 0.19069,-0.5715396 0,-0.3810027 -0.24581,-0.5710264 -0.737944,-0.5710264 z m -61.174561,0.023786 c -0.158747,0 -0.254018,0.086857 -0.285771,0.2614824 0,0.333375 -0.07948,0.7223522 -0.238228,1.1668521 -0.142876,0.4444998 -0.333417,0.9050628 -0.571542,1.3813128 -0.198006,0.410154 -0.402275,0.794697 -0.612882,1.154451 -0.02122,0.01971 -0.03919,0.04733 -0.05374,0.08371 -0.160312,0.263372 -0.311993,0.493623 -0.455786,0.690915 -0.06575,0.08891 -0.128471,0.16846 -0.187069,0.237712 -0.0135,0.01688 -0.02554,0.03345 -0.03617,0.04961 -0.172166,0.208921 -0.350457,0.398788 -0.535368,0.569474 -0.238125,0.22225 -0.452355,0.404897 -0.642855,0.547772 -0.1905,0.127 -0.357352,0.190685 -0.500227,0.190685 -0.1905,0 -0.341045,-0.143166 -0.452169,-0.428913 -0.09525,-0.28575 -0.143144,-0.745795 -0.143144,-1.380797 0,-0.365123 0.01579,-0.722519 0.04754,-1.071769 0.03175,-0.365125 0.07964,-0.730414 0.143144,-1.095539 v -0.04754 c 0.01587,-0.01588 0.02377,-0.03167 0.02377,-0.04754 0,-0.15875 -0.07158,-0.238228 -0.214457,-0.238228 -0.15875,0 -0.293501,0.07948 -0.404626,0.238228 -0.09525,0.15875 -0.158933,0.301916 -0.190686,0.428916 -0.01587,0.15875 -0.03956,0.380876 -0.07131,0.666625 -0.01587,0.269875 -0.02377,0.555686 -0.02377,0.857311 0,0.28575 0.0079,0.563669 0.02377,0.833541 0.03175,0.269878 0.05544,0.47621 0.07131,0.619085 0.111125,0.460375 0.246393,0.793565 0.405143,0.999937 0.15875,0.1905 0.340879,0.285772 0.547253,0.285772 0.22225,0 0.452789,-0.09527 0.690914,-0.285772 0.254,-0.206372 0.499815,-0.452188 0.73794,-0.737938 v -5.29e-4 c 0.212695,-0.25023 0.415257,-0.494986 0.608231,-0.735357 0.01954,-0.02029 0.03885,-0.04458 0.05839,-0.0739 0.555625,-0.682625 1.000394,-1.373206 1.333768,-2.071706 0.349251,-0.6985 0.627166,-1.333812 0.833541,-1.9053095 0.04762,0.1269974 0.158689,0.2622656 0.333314,0.4051406 0.174625,0.127 0.325168,0.2222709 0.452168,0.2857709 0.28575,0.142875 0.428916,0.325522 0.428916,0.547772 0,0.127 -0.06369,0.293336 -0.190688,0.499711 -0.301625,0.428625 -0.626917,0.88129 -0.976167,1.35754 -0.34925,0.47625 -0.650855,0.960498 -0.904855,1.452623 -0.238125,0.492125 -0.357084,0.992167 -0.357084,1.500167 0,0.396875 0.08737,0.682688 0.262,0.857313 0.1905,0.1905 0.420522,0.285771 0.690397,0.285771 0.301625,0 0.60323,-0.08738 0.904855,-0.262001 0.3175,-0.15875 0.579106,-0.365082 0.785481,-0.619082 0.0635,-0.0635 0.0956,-0.135083 0.0956,-0.214458 0,-0.04763 -0.0158,-0.07131 -0.04754,-0.07131 -0.03175,0 -0.07174,0.03158 -0.119372,0.09508 -0.15875,0.15875 -0.365082,0.317709 -0.619082,0.476459 -0.254,0.174622 -0.51561,0.261482 -0.785484,0.261482 -0.206375,0 -0.38902,-0.06317 -0.54777,-0.190169 -0.142876,-0.127 -0.214458,-0.325438 -0.214458,-0.595313 0,-0.460375 0.134752,-0.905144 0.404627,-1.333769 0.28575,-0.4445 0.579459,-0.865064 0.881084,-1.261939 0.07937,-0.09525 0.206748,-0.25369 0.381373,-0.47594 0.1905,-0.238125 0.380523,-0.492353 0.571023,-0.762228 0.206375,-0.269875 0.381125,-0.516204 0.524,-0.738454 0.142875,-0.238125 0.214458,-0.404461 0.214458,-0.499713 0,-0.206373 -0.103167,-0.357434 -0.309544,-0.452684 -0.1905,-0.09525 -0.412626,-0.1747282 -0.666626,-0.2382282 -0.238125,-0.079375 -0.420769,-0.1662324 -0.547769,-0.2614824 -0.127,-0.079375 -0.222271,-0.1909551 -0.285771,-0.3338301 -0.0635,-0.142875 -0.09509,-0.2855224 -0.09509,-0.4283974 0,-0.09525 0.0079,-0.1668304 0.02377,-0.214458 0,-0.142875 -0.06369,-0.2139395 -0.190692,-0.2139395 z m 27.431918,0.4759377 c 0.3175,0 0.571727,0.1110642 0.762227,0.3333142 0.206373,0.206375 0.309542,0.515874 0.309542,0.9286264 0,0.333373 -0.08738,0.746557 -0.262001,1.238684 -0.206375,0.5715 -0.492186,1.063644 -0.857311,1.476394 -0.365125,0.41275 -0.785688,0.777525 -1.261938,1.095025 -0.04762,-0.682627 -0.135001,-1.357418 -0.262001,-2.024165 -0.127,-0.682625 -0.238062,-1.3569 -0.333312,-2.02365 0.333375,-0.34925 0.666562,-0.6034776 0.999937,-0.7622276 0.333375,-0.174625 0.634979,-0.262001 0.904857,-0.262001 z m -2.238108,1.3813126 c 0.07938,0.682625 0.158337,1.365311 0.237712,2.047936 0.07938,0.66675 0.12727,1.341541 0.143143,2.024166 -0.4445,0.238125 -0.920854,0.428148 -1.428854,0.571026 -0.142875,0.03175 -0.301315,0.06386 -0.475937,0.0956 -0.15875,0.01588 -0.3335,0.02376 -0.524,0.02376 -0.34925,0 -0.690853,-0.07158 -1.024228,-0.214458 -0.3175,-0.142875 -0.555419,-0.412896 -0.714169,-0.809771 -0.0635,-0.1905 -0.09508,-0.412625 -0.09508,-0.666625 0,-0.174625 0.01579,-0.341477 0.04754,-0.500227 0.03175,-0.174625 0.07123,-0.333065 0.118856,-0.47594 0.1905,0.0635 0.396833,0.09508 0.619083,0.09508 0.460375,0 0.897247,-0.126854 1.309997,-0.380854 0.41275,-0.254 0.777523,-0.547709 1.095023,-0.881084 0.3175,-0.34925 0.548039,-0.658749 0.690914,-0.928624 z M 68.22019,10.33944 c -0.15875,0 -0.293499,0.07948 -0.404624,0.238228 -0.09525,0.15875 -0.158941,0.301916 -0.190688,0.428916 -0.01588,0.15875 -0.03956,0.380876 -0.07131,0.666625 -0.01587,0.269875 -0.02376,0.555686 -0.02376,0.857311 0,0.28575 0.0079,0.563669 0.02376,0.833541 0.03176,0.269878 0.05544,0.47621 0.07131,0.619085 0.111127,0.460375 0.246393,0.793565 0.405146,0.999937 0.15875,0.1905 0.341394,0.285772 0.547769,0.285772 0.22225,0 0.452271,-0.09527 0.690396,-0.285772 0.254,-0.206372 0.499816,-0.452188 0.737939,-0.737938 v -5.29e-4 c 0.269877,-0.3175 0.524105,-0.627002 0.762227,-0.928627 0.238128,-0.301625 0.436563,-0.579022 0.595313,-0.833022 0.07938,-0.15875 0.06358,-0.238231 -0.04754,-0.238231 -0.0635,3e-6 -0.111392,0.03948 -0.143145,0.118856 -0.222249,0.365128 -0.428582,0.666732 -0.619082,0.904857 -0.1905,0.238125 -0.388938,0.452352 -0.595313,0.642852 -0.238125,0.22225 -0.452355,0.404898 -0.642855,0.547773 -0.1905,0.127 -0.357352,0.190685 -0.500229,0.190685 -0.1905,0 -0.341043,-0.143166 -0.452168,-0.428914 -0.09525,-0.28575 -0.143145,-0.745794 -0.143145,-1.380797 0,-0.365122 0.01633,-0.722518 0.04806,-1.071768 0.03175,-0.365125 0.07913,-0.730414 0.142626,-1.095539 v -0.04754 c 0.01587,-0.01587 0.02376,-0.03167 0.02376,-0.04754 0,-0.15875 -0.07158,-0.238228 -0.214458,-0.238228 z m -57.769081,1.35754 c -0.8255,0.968375 -1.77769,1.801606 -2.85719,2.500106 -1.0795,0.6985 -2.230644,1.206439 -3.453019,1.523939 -0.238125,0.0635 -0.48394,0.1035 -0.73794,0.119372 -0.238125,0.03175 -0.468664,0.04754 -0.690914,0.04754 -0.34925,0 -0.595064,-0.04738 -0.737939,-0.142629 -0.142875,-0.07937 -0.214457,-0.174644 -0.214457,-0.285769 0,-0.174625 0.08737,-0.365167 0.261999,-0.571542 0.174625,-0.22225 0.349374,-0.428583 0.523999,-0.619083 0.66675,-0.66675 1.420503,-1.166793 2.261877,-1.500168 0.841376,-0.34925 1.690915,-0.611373 2.548165,-0.785998 0.508,-0.126998 1.023835,-0.206476 1.547709,-0.238228 0.523876,-0.03175 1.03971,-0.04754 1.54771,-0.04754 z" />
  </g>
</svg>
